<svg width="14" height="17" viewBox="0 0 14 17" fill="none" xmlns="http://www.w3.org/2000/svg">
<path d="M5.50253 7.17188H4.1744V14.6625L1.99628 11.475L0.933777 12.2294L3.77065 16.405C3.88644 16.5853 4.04287 16.7359 4.22739 16.8447C4.41191 16.9536 4.61938 17.0177 4.83315 17.0319C5.04692 17.0177 5.2544 16.9536 5.43892 16.8447C5.62344 16.7359 5.77987 16.5853 5.89565 16.405L8.73253 12.2294L7.67003 11.475L5.48128 14.6625L5.50253 7.17188ZM9.04065 0.626883L6.20378 4.80251L7.26628 5.55688L9.45503 2.36938V9.82813H10.7832V2.39063L12.9082 5.57813L13.9707 4.82376L11.2719 0.626883C11.1552 0.435631 10.9913 0.277587 10.796 0.167927C10.6006 0.0582665 10.3803 0.000671387 10.1563 0.000671387C9.93224 0.000671387 9.71196 0.0582665 9.5166 0.167927C9.32123 0.277587 9.15734 0.435631 9.04065 0.626883Z" fill="white"/>
</svg>
