<svg width="15" height="15" viewBox="0 0 15 15" fill="none" xmlns="http://www.w3.org/2000/svg">
<g clip-path="url(#clip0_203_54)">
<path d="M3.40453 8.93016L2.62828 11.6475C2.61422 11.6953 2.60578 11.7506 2.60578 11.8078C2.60578 12.1317 2.86781 12.3942 3.19172 12.3947C3.25078 12.3947 3.30797 12.3858 3.36188 12.3698L3.35766 12.3708L5.99297 11.5945C6.08953 11.565 6.1725 11.5148 6.24 11.4487L14.475 3.29531C14.5823 3.18891 14.6489 3.04172 14.6489 2.87859C14.6489 2.71687 14.5833 2.57063 14.4778 2.46469L12.5367 0.523125C12.4303 0.417188 12.2841 0.351562 12.1219 0.351562C11.9597 0.351562 11.8134 0.417188 11.707 0.523125L3.55359 8.67656C3.48516 8.745 3.43359 8.83078 3.40547 8.92594L3.40453 8.93016ZM12.1214 1.76625L13.2319 2.87672L12.1214 3.97641L11.0105 2.87719L12.1214 1.76625ZM4.48969 9.39797L10.1822 3.70547L11.2889 4.80047L5.52 10.5117L4.04766 10.9448L4.48969 9.39797ZM14.0625 5.97656C13.7391 5.97656 13.4766 6.23906 13.4766 6.5625V13.4766H1.52344V1.52344H8.4375C8.76094 1.52344 9.02344 1.26094 9.02344 0.9375C9.02344 0.614062 8.76094 0.351562 8.4375 0.351562H0.9375C0.614062 0.351562 0.351562 0.614062 0.351562 0.9375V14.0625C0.351562 14.3859 0.614062 14.6484 0.9375 14.6484H14.0625C14.3859 14.648 14.648 14.3859 14.6484 14.0625V6.5625C14.6484 6.23906 14.3859 5.97656 14.0625 5.97656Z" fill="black"/>
</g>
<defs>
<clipPath id="clip0_203_54">
<rect width="15" height="15" fill="white"/>
</clipPath>
</defs>
</svg>
